<svg width="172" height="171" viewBox="0 0 172 171" fill="none" xmlns="http://www.w3.org/2000/svg">
<path id="Ellipse 2" d="M165.5 85.5C165.5 95.9401 163.444 106.278 159.448 115.923C155.453 125.569 149.597 134.333 142.215 141.715C134.833 149.097 126.069 154.953 116.423 158.948C106.778 162.944 96.4401 165 86 165C75.5599 165 65.222 162.944 55.5767 158.948C45.9313 154.953 37.1673 149.097 29.785 141.715C22.4027 134.333 16.5468 125.569 12.5516 115.923C8.55633 106.278 6.5 95.9401 6.5 85.5C6.5 75.0599 8.55633 64.722 12.5516 55.0767C16.5468 45.4313 22.4028 36.6673 29.785 29.285C37.1673 21.9027 45.9313 16.0468 55.5767 12.0516C65.2221 8.05633 75.5599 6 86 6C96.4401 6 106.778 8.05633 116.423 12.0516C126.069 16.0468 134.833 21.9028 142.215 29.285C149.597 36.6673 155.453 45.4313 159.448 55.0767C163.444 64.7221 165.5 75.0599 165.5 85.5L165.5 85.5Z" stroke="#824FA5" stroke-width="12"/>
</svg>
