<svg width="42" height="42" viewBox="0 0 42 42" fill="none" xmlns="http://www.w3.org/2000/svg">
<rect x="1" y="1" width="40" height="40" rx="12" fill="white"/>
<rect x="1" y="1" width="40" height="40" rx="12" stroke="#5F3A79" stroke-opacity="0.8"/>
<path d="M26.625 13.5H23.5C23.1685 13.5 22.8505 13.6317 22.6161 13.8661C22.3817 14.1005 22.25 14.4185 22.25 14.75V27.25C22.25 27.5815 22.3817 27.8995 22.6161 28.1339C22.8505 28.3683 23.1685 28.5 23.5 28.5H26.625C26.9565 28.5 27.2745 28.3683 27.5089 28.1339C27.7433 27.8995 27.875 27.5815 27.875 27.25V14.75C27.875 14.4185 27.7433 14.1005 27.5089 13.8661C27.2745 13.6317 26.9565 13.5 26.625 13.5ZM26.625 27.25H23.5V14.75H26.625V27.25ZM18.5 13.5H15.375C15.0435 13.5 14.7255 13.6317 14.4911 13.8661C14.2567 14.1005 14.125 14.4185 14.125 14.75V27.25C14.125 27.5815 14.2567 27.8995 14.4911 28.1339C14.7255 28.3683 15.0435 28.5 15.375 28.5H18.5C18.8315 28.5 19.1495 28.3683 19.3839 28.1339C19.6183 27.8995 19.75 27.5815 19.75 27.25V14.75C19.75 14.4185 19.6183 14.1005 19.3839 13.8661C19.1495 13.6317 18.8315 13.5 18.5 13.5ZM18.5 27.25H15.375V14.75H18.5V27.25Z" fill="#5F3A79"/>
</svg>
