<svg width="42" height="42" viewBox="0 0 42 42" fill="none" xmlns="http://www.w3.org/2000/svg">
<rect x="1" y="1" width="40" height="40" rx="12" fill="white"/>
<rect x="1" y="1" width="40" height="40" rx="12" stroke="#5F3A79" stroke-opacity="0.8"/>
<path d="M29.1563 19.9446L17.9 13.0586C17.7102 12.9424 17.4929 12.879 17.2704 12.8748C17.0479 12.8707 16.8283 12.9261 16.6344 13.0352C16.4423 13.1426 16.2822 13.2992 16.1708 13.489C16.0593 13.6787 16.0003 13.8948 16 14.1149V27.8852C16.0014 28.2153 16.1339 28.5314 16.3683 28.7639C16.6027 28.9964 16.9199 29.1263 17.25 29.125C17.4804 29.1249 17.7064 29.0614 17.9031 28.9414L29.1563 22.0555C29.3371 21.9452 29.4866 21.7903 29.5904 21.6056C29.6941 21.4209 29.7486 21.2126 29.7486 21.0008C29.7486 20.789 29.6941 20.5807 29.5904 20.396C29.4866 20.2113 29.3371 20.0564 29.1563 19.9461V19.9446ZM17.25 27.8703V14.125L28.4867 21L17.25 27.8703Z" fill="#5F3A79"/>
</svg>
